<?xml version="1.0" encoding="UTF-8" standalone="no"?>
<!-- Created with Inkscape (http://www.inkscape.org/) -->

<svg
   xmlns:dc="http://purl.org/dc/elements/1.1/"
   xmlns:cc="http://creativecommons.org/ns#"
   xmlns:rdf="http://www.w3.org/1999/02/22-rdf-syntax-ns#"
   xmlns:svg="http://www.w3.org/2000/svg"
   xmlns="http://www.w3.org/2000/svg"
   xmlns:xlink="http://www.w3.org/1999/xlink"
   xmlns:sodipodi="http://sodipodi.sourceforge.net/DTD/sodipodi-0.dtd"
   xmlns:inkscape="http://www.inkscape.org/namespaces/inkscape"
   width="297mm"
   height="210mm"
   viewBox="0 0 297 210"
   version="1.1"
   id="svg8"
   inkscape:version="0.92.2 (5c3e80d, 2017-08-06)"
   sodipodi:docname="cam.svg">
  <defs
     id="defs2">
    <linearGradient
       inkscape:collect="always"
       id="linearGradient864">
      <stop
         style="stop-color:#000000;stop-opacity:1;"
         offset="0"
         id="stop860" />
      <stop
         style="stop-color:#000000;stop-opacity:0;"
         offset="1"
         id="stop862" />
    </linearGradient>
    <linearGradient
       inkscape:collect="always"
       xlink:href="#linearGradient864"
       id="linearGradient866"
       x1="57.593384"
       y1="205.27755"
       x2="296.19388"
       y2="205.27755"
       gradientUnits="userSpaceOnUse" />
  </defs>
  <sodipodi:namedview
     id="base"
     pagecolor="#ffffff"
     bordercolor="#666666"
     borderopacity="1.0"
     inkscape:pageopacity="0.0"
     inkscape:pageshadow="2"
     inkscape:zoom="0.58"
     inkscape:cx="587.97418"
     inkscape:cy="400.5139"
     inkscape:document-units="mm"
     inkscape:current-layer="layer1"
     showgrid="false"
     showguides="true"
     inkscape:guide-bbox="true"
     inkscape:window-width="1366"
     inkscape:window-height="705"
     inkscape:window-x="-8"
     inkscape:window-y="-8"
     inkscape:window-maximized="1" />
  <metadata
     id="metadata5">
    <rdf:RDF>
      <cc:Work
         rdf:about="">
        <dc:format>image/svg+xml</dc:format>
        <dc:type
           rdf:resource="http://purl.org/dc/dcmitype/StillImage" />
        <dc:title></dc:title>
      </cc:Work>
    </rdf:RDF>
  </metadata>
  <g
     inkscape:label="Capa 1"
     inkscape:groupmode="layer"
     id="layer1"
     transform="translate(0,-87)">
    <path
       style="fill:url(#linearGradient866);fill-opacity:1;stroke:none;stroke-width:0.26458332px;stroke-linecap:butt;stroke-linejoin:miter;stroke-opacity:1"
       d="M 57.816109,246.63455 C 91.463957,203.06322 232.80644,144.93856 145.92184,117.6554 l 84.36384,26.42318 64.40541,36.59599 1.36853,112.21983 z"
       id="path858"
       inkscape:connector-curvature="0"
       sodipodi:nodetypes="cccccc" />
    <path
       style="opacity:1;fill:#000000;fill-opacity:1;fill-rule:nonzero;stroke:none;stroke-width:1.20000005;stroke-linecap:butt;stroke-linejoin:round;stroke-miterlimit:4;stroke-dasharray:none;stroke-dashoffset:0;stroke-opacity:1;paint-order:markers stroke fill"
       d="m 145.92184,117.6554 c -9.94272,0.0552 -20.42427,2.89339 -31.75878,10.13773 l -6.36964,16.72554 -49.977311,-0.44009 V 246.63455 H 230.28568 V 144.07858 l -41.15769,-1.32025 -6.85953,-14.9652 c -11.6703,-5.67917 -23.56312,-10.20866 -36.34662,-10.13773 z m -12.51345,14.45409 c 1.48828,0 2.65537,0.41042 3.50056,1.23158 0.0919,0.0908 0.13746,0.17125 0.13746,0.2414 0,0.0784 -0.16059,0.36932 -0.48214,0.87274 -0.31695,0.50343 -0.51676,0.78624 -0.59944,0.84814 -0.0368,0.033 -0.0829,0.0492 -0.13798,0.0492 -0.023,0 -0.13746,-0.0824 -0.34416,-0.24743 -0.24805,-0.19807 -0.49185,-0.35281 -0.73071,-0.46423 -0.36288,-0.16505 -0.7392,-0.24743 -1.12965,-0.24743 -0.67524,0 -1.21531,0.22665 -1.61954,0.68056 -0.37207,0.42089 -0.5581,0.94082 -0.5581,1.55979 0,0.62722 0.18603,1.15334 0.5581,1.57836 0.40423,0.46216 0.9443,0.69355 1.61954,0.69355 0.39963,0 0.7786,-0.0786 1.13688,-0.23536 0.23427,-0.10316 0.47279,-0.24743 0.71624,-0.43312 0.20211,-0.15681 0.315,-0.23536 0.33796,-0.23536 0.0459,0 0.0915,0.0228 0.13746,0.0682 0.0735,0.0743 0.27331,0.33187 0.59945,0.7734 0.33532,0.45803 0.50333,0.7099 0.50333,0.75529 0,0.066 -0.0482,0.15268 -0.1447,0.25997 -0.84519,0.90368 -1.96829,1.35553 -3.3693,1.35553 -1.43316,0 -2.59548,-0.43947 -3.48661,-1.3184 -0.86816,-0.85004 -1.30224,-1.92276 -1.30224,-3.21846 0,-1.25444 0.42506,-2.31906 1.27485,-3.19387 0.88654,-0.91607 2.01389,-1.3741 3.38274,-1.3741 z m 23.77116,2.6925 c 1.03812,0 1.87873,0.29282 2.52181,0.87878 0.64309,0.58182 0.9648,1.33887 0.9648,2.27144 0,0.94083 -0.32171,1.70453 -0.9648,2.29049 -0.63849,0.58595 -1.47909,0.87878 -2.52181,0.87878 -1.01056,0 -1.84163,-0.28901 -2.4939,-0.86671 -0.65228,-0.5777 -0.97876,-1.32046 -0.97876,-2.22828 0,-0.95733 0.3127,-1.73295 0.93742,-2.32715 0.62471,-0.59834 1.46956,-0.89735 2.53524,-0.89735 z m -16.4052,0.0492 c 0.72117,0 1.29042,0.22711 1.70842,0.68101 0.0184,0.0206 0.0348,0.0311 0.0486,0.0311 0.0413,0 0.0869,-0.099 0.13746,-0.29711 0.0551,-0.20219 0.11977,-0.3036 0.19327,-0.3036 0.16996,0 0.4938,0.0433 0.97152,0.12998 0.45475,0.0825 0.78071,0.15299 0.97823,0.21076 0.0689,0.0248 0.10335,0.0576 0.10335,0.0989 0,0.0165 -0.007,0.0598 -0.0207,0.12998 -0.14699,0.74689 -0.22066,1.53726 -0.22066,2.3708 0,0.31773 0.0207,0.79006 0.062,1.41727 0.0413,0.62722 0.062,1.09764 0.062,1.41125 0,0.16505 -0.08,0.25362 -0.24082,0.266 -0.56959,0.0371 -1.22203,0.0557 -1.95698,0.0557 -0.0873,0 -0.14717,-0.1176 -0.17932,-0.35281 -0.0276,-0.23933 -0.062,-0.36075 -0.10335,-0.36488 -0.0368,0.0165 -0.085,0.0513 -0.1447,0.10492 -0.51446,0.46629 -1.06568,0.69958 -1.65364,0.69958 -0.89573,0 -1.63723,-0.31758 -2.22519,-0.95305 -0.55581,-0.5942 -0.83406,-1.30411 -0.83406,-2.1294 0,-0.9532 0.28727,-1.72072 0.86145,-2.30255 0.59715,-0.60246 1.41496,-0.90384 2.45308,-0.90384 z m 9.99061,0.0251 c 0.58336,0 1.07044,0.12379 1.46089,0.37138 0.43638,0.28472 0.65422,0.68086 0.65422,1.18841 v 1.97435 c 0,0.26821 0.003,0.67054 0.007,1.20698 0.005,0.53231 0.007,0.93273 0.007,1.20095 0,0.11141 -0.0641,0.17521 -0.19275,0.19172 -0.12862,0.0165 -0.46411,0.0246 -1.00614,0.0246 -0.57878,0 -0.93707,-0.0124 -1.07487,-0.0371 -0.13781,-0.0248 -0.20671,-0.10904 -0.20671,-0.25347 0,-0.19394 0.007,-0.48723 0.0207,-0.87924 0.0138,-0.39201 0.0207,-0.68674 0.0207,-0.88481 0,-0.15268 -0.005,-0.37979 -0.0139,-0.68102 -0.009,-0.30536 -0.0134,-0.53437 -0.0134,-0.68705 0,-0.56532 -0.27349,-0.84814 -0.82011,-0.84814 -0.17914,0 -0.38797,0.0705 -0.62683,0.21076 -0.25724,0.1568 -0.38603,0.31155 -0.38603,0.46422 v 3.34242 c 0,0.13617 -0.071,0.21235 -0.21342,0.22886 -0.16077,0.0165 -0.48938,0.0246 -0.98547,0.0246 -0.53743,0 -0.88671,-0.0124 -1.04748,-0.0371 -0.1424,-0.0206 -0.21343,-0.0887 -0.21343,-0.20426 0,-0.32186 0.002,-0.80657 0.007,-1.45442 0.005,-0.64785 0.007,-1.13492 0.007,-1.46091 0,-1.02748 -0.0896,-1.83405 -0.26871,-2.42 -0.009,-0.0371 -0.0139,-0.0681 -0.0139,-0.0928 0,-0.066 0.0344,-0.11126 0.10335,-0.13601 0.28939,-0.0289 0.67524,-0.0746 1.15756,-0.13649 0.73036,-0.12792 1.14164,-0.19172 1.23351,-0.19172 0.0505,0 0.0892,0.14045 0.11679,0.42105 0.0276,0.27647 0.0668,0.41455 0.11731,0.41455 -0.0505,0 0.19539,-0.14236 0.73742,-0.42708 0.54662,-0.28886 1.02417,-0.43312 1.43299,-0.43312 z m 15.46158,0 c 0.58337,0 1.07045,0.12379 1.4609,0.37138 0.43637,0.28472 0.65422,0.68086 0.65422,1.18841 v 1.97435 c 0,0.26821 0.003,0.67054 0.007,1.20698 0.005,0.53231 0.007,0.93273 0.007,1.20095 0,0.11141 -0.0641,0.17521 -0.19275,0.19172 -0.12862,0.0165 -0.46412,0.0246 -1.00614,0.0246 -0.57878,0 -0.93707,-0.0124 -1.07487,-0.0371 -0.13781,-0.0248 -0.20671,-0.10904 -0.20671,-0.25347 0,-0.19394 0.007,-0.48723 0.0207,-0.87924 0.0138,-0.39201 0.0207,-0.68674 0.0207,-0.88481 0,-0.15268 -0.005,-0.37979 -0.0139,-0.68102 -0.009,-0.30536 -0.0134,-0.53437 -0.0134,-0.68705 0,-0.56532 -0.27348,-0.84814 -0.8201,-0.84814 -0.17914,0 -0.38798,0.0705 -0.62684,0.21076 -0.25723,0.1568 -0.38602,0.31155 -0.38602,0.46422 v 3.34242 c 0,0.13617 -0.071,0.21235 -0.21342,0.22886 -0.16077,0.0165 -0.48938,0.0246 -0.98547,0.0246 -0.53744,0 -0.88671,-0.0124 -1.04748,-0.0371 -0.1424,-0.0206 -0.21343,-0.0887 -0.21343,-0.20426 0,-0.32186 0.002,-0.80657 0.007,-1.45442 0.005,-0.64785 0.007,-1.13492 0.007,-1.46091 0,-1.02748 -0.0896,-1.83405 -0.26872,-2.42 -0.009,-0.0371 -0.0139,-0.0681 -0.0139,-0.0928 0,-0.066 0.0344,-0.11126 0.10335,-0.13601 0.28939,-0.0289 0.67524,-0.0746 1.15755,-0.13649 0.73037,-0.12792 1.14165,-0.19172 1.23352,-0.19172 0.0505,0 0.0892,0.14045 0.11679,0.42105 0.0276,0.27647 0.0668,0.41455 0.11731,0.41455 -0.0505,0 0.19539,-0.14236 0.73742,-0.42708 0.54662,-0.28886 1.02417,-0.43312 1.43299,-0.43312 z m -9.03304,1.83832 c -0.36288,0 -0.66128,0.12761 -0.89555,0.38345 -0.22048,0.23934 -0.33073,0.52406 -0.33073,0.85417 0,0.33425 0.11025,0.62134 0.33073,0.86068 0.23427,0.25584 0.53267,0.38345 0.89555,0.38345 0.35829,0 0.65457,-0.12761 0.88884,-0.38345 0.21589,-0.23934 0.32401,-0.52643 0.32401,-0.86068 0,-0.32598 -0.11289,-0.61262 -0.33796,-0.8602 -0.22508,-0.25172 -0.5166,-0.37742 -0.87489,-0.37742 z m -16.06775,0.0121 c -0.39504,0 -0.71463,0.11379 -0.95808,0.34074 -0.24345,0.22695 -0.36484,0.51787 -0.36484,0.87274 0,0.33424 0.12828,0.62088 0.38551,0.86021 0.25724,0.23933 0.56993,0.35884 0.93741,0.35884 0.39045,0 0.70952,-0.11332 0.95756,-0.34027 0.24805,-0.23108 0.37207,-0.52391 0.37207,-0.87878 0,-0.35075 -0.12402,-0.63975 -0.37207,-0.86671 -0.24345,-0.23108 -0.56252,-0.34677 -0.95756,-0.34677 z M 72.546992,157.3684 h 27.880988 c 2.83702,0 5.12062,2.05189 5.12062,4.60046 v 10.47848 c 0,2.54857 -2.2836,4.60046 -5.12062,4.60046 H 72.546992 c -2.837018,0 -5.121134,-2.05189 -5.121134,-4.60046 v -10.47848 c 0,-2.54857 2.284116,-4.60046 5.121134,-4.60046 z"
       id="rect815"
       inkscape:connector-curvature="0" />
    <path
       style="opacity:1;fill:#ffffff;fill-opacity:1;fill-rule:nonzero;stroke:none;stroke-width:1.20000005;stroke-linecap:butt;stroke-linejoin:round;stroke-miterlimit:4;stroke-dasharray:none;stroke-dashoffset:0;stroke-opacity:1;paint-order:markers stroke fill"
       id="path824"
       sodipodi:type="arc"
       sodipodi:cx="149.31523"
       sodipodi:cy="196.53316"
       sodipodi:rx="38.391457"
       sodipodi:ry="37.324585"
       sodipodi:start="0"
       sodipodi:end="6.2797121"
       sodipodi:open="true"
       d="m 187.70669,196.53316 a 38.391457,37.324585 0 0 1 -38.35812,37.32457 38.391457,37.324585 0 0 1 -38.42474,-37.25975 38.391457,37.324585 0 0 1 38.2914,-37.38928 38.391457,37.324585 0 0 1 38.49123,37.19482" />
    <path
       style="opacity:1;fill:#000000;fill-opacity:1;fill-rule:nonzero;stroke:none;stroke-width:1.19999993;stroke-linecap:butt;stroke-linejoin:round;stroke-miterlimit:4;stroke-dasharray:none;stroke-dashoffset:0;stroke-opacity:1;paint-order:markers stroke fill"
       id="path826"
       sodipodi:type="arc"
       sodipodi:cx="149.04457"
       sodipodi:cy="196.24866"
       sodipodi:rx="35.670925"
       sodipodi:ry="35.080204"
       sodipodi:start="0"
       sodipodi:end="6.2797121"
       sodipodi:open="true"
       d="m 184.7155,196.24866 a 35.670925,35.080204 0 0 1 -35.63996,35.08019 35.670925,35.080204 0 0 1 -35.70184,-35.01927 35.670925,35.080204 0 0 1 35.57795,-35.14101 35.670925,35.080204 0 0 1 35.76363,34.95825" />
    <path
       style="opacity:1;fill:#d7e3f4;fill-opacity:1;fill-rule:nonzero;stroke:none;stroke-width:1.20000005;stroke-linecap:butt;stroke-linejoin:round;stroke-miterlimit:4;stroke-dasharray:none;stroke-dashoffset:0;stroke-opacity:1;paint-order:markers stroke fill"
       id="path828"
       sodipodi:type="arc"
       sodipodi:cx="149.72112"
       sodipodi:cy="196.49451"
       sodipodi:rx="30.853355"
       sodipodi:ry="29.643129"
       sodipodi:start="0"
       sodipodi:end="6.2797121"
       sodipodi:open="true"
       d="m 180.57447,196.49451 a 30.853355,29.643129 0 0 1 -30.82656,29.64312 30.853355,29.643129 0 0 1 -30.8801,-29.59164 30.853355,29.643129 0 0 1 30.77294,-29.69451 30.853355,29.643129 0 0 1 30.93353,29.54007" />
    <path
       style="opacity:1;fill:#aaaaff;fill-opacity:1;fill-rule:nonzero;stroke:none;stroke-width:1.19999993;stroke-linecap:butt;stroke-linejoin:round;stroke-miterlimit:4;stroke-dasharray:none;stroke-dashoffset:0;stroke-opacity:1;paint-order:markers stroke fill"
       d="m 166.55408,172.26133 c 2.48195,0.65558 4.36152,2.5159 6.20226,4.45388 l -40.92179,44.20295 -4.96863,-4.7409 z"
       id="rect830"
       inkscape:connector-curvature="0"
       sodipodi:nodetypes="ccccc" />
    <rect
       style="opacity:1;fill:#00aad4;fill-opacity:1;fill-rule:nonzero;stroke:none;stroke-width:1.20000005;stroke-linecap:butt;stroke-linejoin:round;stroke-miterlimit:4;stroke-dasharray:none;stroke-dashoffset:0;stroke-opacity:1;paint-order:markers stroke fill"
       id="rect856"
       width="27.370682"
       height="4.561789"
       x="71.391876"
       y="139.61855"
       ry="0"
       rx="0" />
  </g>
</svg>
